<svg width="106" height="30" viewBox="0 0 106 30" fill="none" xmlns="http://www.w3.org/2000/svg">
<path fill-rule="evenodd" clip-rule="evenodd" d="M73.5449 14.1284H75.972H76.0284V22.0644C76.0284 26.7538 78.1733 29.0986 82.4065 29.0986C83.4225 29.0986 84.3256 28.9783 85.0593 28.798V23.6276C84.4384 23.7478 83.9305 23.8079 83.6482 23.8079C81.955 23.8079 81.2776 23.0263 81.2776 21.1626V14.1284H85.398V8.83777H81.2776V1.32263H75.972V8.83777H73.5449V14.1284ZM40.6388 24.1085C38.5504 24.1085 36.5749 23.2067 35.559 21.9442L32.4546 25.6115C34.2608 27.9563 36.9136 29.1587 40.5259 29.1587C45.9445 29.1587 48.6537 26.5134 48.6537 22.4852C48.6537 19.8399 47.1298 17.9762 44.0819 16.894C42.9058 16.4416 41.8811 16.1504 41.0951 15.927C40.523 15.7644 40.0775 15.6378 39.7922 15.5112C39.1713 15.2106 39.002 14.91 39.002 14.429C39.002 13.6474 39.6229 13.1665 40.8082 13.1665C42.3886 13.1665 43.6867 13.6474 44.7027 14.6094L47.2991 10.7616C45.6623 9.07823 43.5739 8.23654 40.9775 8.23654C39.002 8.23654 37.3087 8.77763 35.8976 9.91993C34.4865 11.0021 33.8092 12.5653 33.8092 14.5493C33.8092 17.1946 35.2203 18.9381 38.0424 20.0203C38.6069 20.2006 39.4535 20.4411 40.5259 20.7417C41.6548 21.0423 42.3886 21.2828 42.7837 21.5233C43.1788 21.7638 43.4045 22.1245 43.4045 22.4852C43.4045 23.5674 42.5014 24.1085 40.6388 24.1085ZM87.7804 8.83774H93.2553V20.0804C93.2553 22.6055 94.61 23.6876 96.6419 23.6876C98.6739 23.6876 100.028 22.5453 100.028 20.0804V8.83774H105.56V20.6215C105.56 23.3269 104.713 25.4913 103.02 26.9342C101.327 28.3771 99.1818 29.0985 96.6983 29.0985C94.1584 29.0985 92.0136 28.3771 90.3203 26.9342C88.627 25.4913 87.7804 23.387 87.7804 20.6215V8.83774ZM64.7399 8.83778V11.423C64.1755 9.7396 62.0307 8.53718 59.2085 8.53718C56.6121 8.53718 54.4109 9.49912 52.6611 11.4831C50.9678 13.407 50.0647 15.872 50.0647 18.6976C50.0647 21.5835 50.9114 23.9883 52.6611 25.9723C54.4109 27.9563 56.6121 28.9182 59.2085 28.9182C62.0307 28.9182 64.1755 27.7158 64.7399 25.9723V28.5575H70.2149V8.83778H64.7399ZM65.0786 18.6976C65.0786 20.0804 64.627 21.2828 63.6675 22.2448C62.708 23.1466 61.5791 23.6276 60.2809 23.6276C58.9827 23.6276 57.8539 23.2067 56.9508 22.2448C56.0477 21.2227 55.5962 20.0804 55.5962 18.6976C55.5962 17.3149 56.0477 16.1726 56.9508 15.2106C57.8539 14.2487 58.9827 13.7677 60.2809 13.7677C61.6356 13.7677 62.7644 14.2487 63.6675 15.2106C64.627 16.1726 65.0786 17.3149 65.0786 18.6976Z" fill="#01011B"/>
<path d="M20.8839 6.61332V22.2448H6.20874V6.61332H20.8839ZM27.0927 0H0V28.8581H27.0927V0Z" fill="#7B04DF"/>
</svg>
